<!-- icon666.com - MILLIONS vector ICONS FREE --><svg id="Layer_2" enable-background="new 0 0 32 32" viewBox="0 0 32 32" xmlns="http://www.w3.org/2000/svg"><path d="m18.12109 16 12.93946-12.93945c.58594-.58545.58594-1.53564 0-2.12109-.58594-.58594-1.53516-.58594-2.12109 0l-12.93946 12.93945-12.93945-12.93946c-.58594-.58594-1.53516-.58594-2.12109 0-.58594.58545-.58594 1.53564 0 2.12109l12.93945 12.93946-12.93946 12.93945c-.58594.58545-.58594 1.53564 0 2.12109.29297.29298.67676.43946 1.06055.43946s.76758-.14648 1.06055-.43945l12.93945-12.93946 12.93945 12.93945c.29297.29298.67676.43946 1.06055.43946s.76758-.14648 1.06055-.43945c.58594-.58545.58594-1.53564 0-2.12109z"></path></svg>